# xmcd
#
# Track frame offsets:
#	150
#	18200
#	34180
#	64892
#	81065
#	108400
#	124122
#	142342
#	159242
#	179340
#
# Disc length: 2619 seconds
#
# Revision: 0
# Processed by: cddbd v1.5PL3 Copyright (c) Steve Scherf et al.
# Submitted via: dBpowerAMP V4.0
#
DISCID=820a390a
DTITLE=Rosenquartett - Ragtimes
DYEAR=1900
DGENRE=Pop
TTITLE0=The Entertainer
TTITLE1=Country Club
TTITLE2=Solace
TTITLE3=Elite Synkopations
TTITLE4=Pleasant Moments
TTITLE5=Paragon Rag
TTITLE6=Easy Winners
TTITLE7=Pineapple Rag
TTITLE8=Original Rag(s)
TTITLE9=The Ragtime Dance
EXTD=
EXTT0=
EXTT1=
EXTT2=
EXTT3=
EXTT4=
EXTT5=
EXTT6=
EXTT7=
EXTT8=
EXTT9=
PLAYORDER=
